<?xml version="1.0" encoding="UTF-8"?>
<svg xmlns="http://www.w3.org/2000/svg" xmlns:xlink="http://www.w3.org/1999/xlink" width="20px" height="20px" viewBox="0 0 20 20" version="1.1">
<g id="surface1">
<path style="fill:none;stroke-width:2;stroke-linecap:round;stroke-linejoin:round;stroke:rgb(0%,0%,0%);stroke-opacity:1;stroke-miterlimit:4;" d="M 12.998437 3 L 8.198437 3 C 7.078125 3 6.520313 3 6.09375 3.220312 C 5.714062 3.4125 5.409375 3.7125 5.217187 4.092187 C 5.001562 4.51875 5.001562 5.076562 5.001562 6.196875 L 5.001562 17.803125 C 5.001562 18.923437 5.001562 19.48125 5.217187 19.907812 C 5.409375 20.2875 5.714062 20.5875 6.09375 20.779687 C 6.520313 21 7.078125 21 8.198437 21 L 12.998437 21 M 12.998437 3 L 18.998437 9 M 12.998437 3 L 12.998437 7.401562 C 12.998437 7.959375 12.998437 8.240625 13.110938 8.451562 C 13.204688 8.639062 13.359375 8.798438 13.546875 8.892188 C 13.7625 9 14.04375 9 14.596875 9 L 18.998437 9 M 18.998437 9 L 18.998437 11.020312 M 21 17.001562 L 15 17.001562 M 15 17.001562 L 17.001562 18.998437 M 15 17.001562 L 17.001562 15 " transform="matrix(0.833333,0,0,0.833333,0,0)"/>
</g>
</svg>
